<?xml version="1.0" encoding="utf-8"?>
<!-- Generator: Adobe Illustrator 22.1.0, SVG Export Plug-In . SVG Version: 6.00 Build 0)  -->
<svg version="1.1" id="Capa_1" xmlns="http://www.w3.org/2000/svg" xmlns:xlink="http://www.w3.org/1999/xlink" x="0px" y="0px"
	 viewBox="0 0 100 100" style="enable-background:new 0 0 100 100;" xml:space="preserve">
<style type="text/css">
	.st0{fill:#E6164A;}
</style>
<path class="st0" d="M51.4,17.6L58.6,40c0.2,0.6,0.7,1,1.4,1h23.6c1.4,0,2,1.8,0.8,2.6L65.3,57.5c-0.5,0.4-0.7,1-0.5,1.6l7.3,22.4
	c0.4,1.3-1.1,2.4-2.2,1.6L50.8,69.2c-0.5-0.4-1.2-0.4-1.7,0L30.1,83.1c-1.1,0.8-2.6-0.3-2.2-1.6l7.3-22.4c0.2-0.6,0-1.2-0.5-1.6
	L15.6,43.6C14.5,42.8,15,41,16.4,41H40c0.6,0,1.2-0.4,1.4-1l7.3-22.4C49.1,16.3,50.9,16.3,51.4,17.6z"/>
</svg>
