<?xml version="1.0" encoding="utf-8"?>
<!-- Generator: Adobe Illustrator 22.1.0, SVG Export Plug-In . SVG Version: 6.00 Build 0)  -->
<svg version="1.1" id="Capa_1" xmlns="http://www.w3.org/2000/svg" xmlns:xlink="http://www.w3.org/1999/xlink" x="0px" y="0px"
	 viewBox="0 0 640 96" style="enable-background:new 0 0 640 96;" xml:space="preserve">
<style type="text/css">
	.st0{fill:#FFFFFF;}
</style>
<g>
	<path class="st0" d="M384.3,89.7c0-28.1,0-55.1,0-83.1C401.7,8,419,4.1,435.9,9.2c7.4,2.2,12.1,7.1,12.9,15
		c0.8,7.8,1.1,15.6-7.5,20.1c-0.5,0.3-0.7,0.9-1.5,2c1.6,1,2.9,2.1,4.4,2.9c7.5,4.3,10.9,10.9,10,19.3c-0.8,7.9-4,14.6-12.2,17
		c-6.3,1.9-12.8,3.7-19.3,4C410.1,90.2,397.4,89.7,384.3,89.7z M402,73.3c9,0,17.8,0.7,26.3-0.4c2.9-0.4,6.6-4.9,7.6-8.2
		c1.3-4.7-3-8-7.2-8.3c-8.8-0.7-17.6-0.2-26.6-0.2C402,62,402,67.5,402,73.3z M402,41c7.8-0.4,15.1-0.4,22.2-1.4
		c4.5-0.6,7.9-3.4,7.6-9c-0.3-5.2-4.1-6.8-7.9-7.3c-7.1-0.9-14.3-0.8-21.9-1.1C402,28.6,402,34.1,402,41z"/>
	<path class="st0" d="M308.9,39.3c0,16.4,0,32.9,0,49.8c-5.9,0-11.4,0-17.4,0c0-27,0-54.2,0-81.4c13.2-3.1,16.2-1.7,23.7,8.6
		c9.8,13.4,20,26.4,31.2,41.3c0-17.9,0-33.9,0-50.3c6.5,0,12,0,18,0c0,27.4,0,54.6,0,81.8c-13.7,2-16.7,0.2-23.8-10.4
		C334,69,326.3,60,319.1,50.6c-3-3.9-5.9-7.9-8.8-11.9C309.8,39,309.3,39.1,308.9,39.3z"/>
	<path class="st0" d="M558.5,89.5c0-27.8,0-54.9,0-82.6c17.1,0.6,34.4-2.9,50.4,3.3c15.9,6.1,26,19.2,25,39.9
		c-1,22.6-15.3,36.4-37.8,39.2C583.9,90.8,571.3,89.5,558.5,89.5z M576.7,23.6c0,16.7,0,33,0,49.5c13.8,0.6,27.5,1.9,35.5-12
		c4.7-8.2,4.5-17.9,0.1-25.8C604.4,21.3,590.3,22.8,576.7,23.6z"/>
	<path class="st0" d="M105.8,89.5c-6.5,0-11.8,0-17.7,0c0-27.4,0-54.6,0-82.2c5.7,0,11.3,0,17.5,0c0,10.6,0,20.9,0,31.8
		c11.4,0,22.1,0,33.6,0c0-10.4,0-20.9,0-31.8c6.5,0,12.2,0,18.3,0c0,27.4,0,54.5,0,82c-5.8,0-11.5,0-17.9,0c0-10.6,0-21.1,0-32.2
		c-11.5,0-22.3,0-33.9,0C105.8,67.9,105.8,78.4,105.8,89.5z"/>
	<path class="st0" d="M538.7,89.4c-6.1,0-11.7,0-17.8,0c0-10.8,0-21.4,0-32.5c-11.3,0-22.1,0-33.6,0c0,10.8,0,21.5,0,32.5
		c-6.4,0-11.9,0-17.8,0c0-27.3,0-54.4,0-82c5.6,0,11.3,0,17.6,0c0,10.5,0,20.9,0,31.7c11.4,0,22.1,0,33.4,0c0-10.4,0-20.7,0-31.7
		c6.3,0,12,0,18.3,0C538.7,34.6,538.7,61.8,538.7,89.4z"/>
	<path class="st0" d="M177.1,89.3c0-27.4,0-54.4,0-81.9c20.7,0,41,0,61.9,0c0,5.1,0,9.9,0,15.6c-14.4,0-28.9,0-43.7,0
		c0,5.8,0,10.9,0,16.5c12.6,0,24.8,0,37.6,0c0,5.6,0,10.6,0,16.4c-9.9,0-19.7,0-29.4,0c-8.6,0-8.6,0-8.6,8.9c0,2.5,0,5,0,8.4
		c15.1,0,29.7,0,44.8,0c0,5.8,0,10.7,0,16C219,89.3,198.4,89.3,177.1,89.3z"/>
	<path class="st0" d="M30.4,89.4c0-22.5,0-43.7,0-65.8c-8.3,0-16.3,0-24.7,0c0-5.9,0-11,0-16.6c22.6,0,45,0,67.8,0
		c0,5.3,0,10.4,0,16.1c-8,0-15.9,0-24.4,0c-0.1,2.7-0.3,4.9-0.3,7.1c0,17.7-0.2,35.5,0.1,53.2c0.1,4.7-1.3,6.5-6,6
		C39,89.1,35.1,89.4,30.4,89.4z"/>
</g>
</svg>
