<?xml version="1.0" encoding="utf-8"?>
<!-- Generator: Adobe Illustrator 22.1.0, SVG Export Plug-In . SVG Version: 6.00 Build 0)  -->
<svg version="1.1" id="Capa_1" xmlns="http://www.w3.org/2000/svg" xmlns:xlink="http://www.w3.org/1999/xlink" x="0px" y="0px"
	 viewBox="0 0 100 100" style="enable-background:new 0 0 100 100;" xml:space="preserve">
<style type="text/css">
	.st0{fill:#2D2D2D;}
</style>
<g>
	<path class="st0" d="M59.7,48.8c-1.7-1-3.4-2.1-5.1-3.1c-2.9-1.8-5.7-3.6-8.6-5.4c-0.7-0.5-1.5-0.4-2.2,0.1c-0.5,0.4-0.6,1-0.6,1.6
		c0,2.8,0,5.7,0,8.5c0,2.8,0,5.6,0,8.4c0,0.2,0,0.3,0,0.5c0,1.4,1.6,2.1,2.7,1.4c1.5-0.9,2.9-1.8,4.4-2.7c2.2-1.4,4.4-2.7,6.6-4.1
		c1.1-0.7,2.1-1.3,3.2-2c0.2-0.1,0.4-0.4,0.5-0.6C61.1,50.3,60.7,49.5,59.7,48.8z"/>
	<path class="st0" d="M94.6,43.9c-1-7.3-3.6-14-7.9-20c-3.6-5-8-9.1-13.2-12.3C69.3,9,64.8,7.2,60.1,6.2c-2.2-0.5-4.5-0.7-6.7-1
		c-0.2,0-0.4-0.1-0.6-0.1c-1.8,0-3.6,0-5.5,0c-1.1,0.1-2.2,0.3-3.3,0.4c-6.4,0.8-12.4,3-17.9,6.4c-3.7,2.3-6.9,5-9.8,8.3
		C11.3,25.9,7.8,32.5,6.2,40c-0.5,2.2-0.7,4.4-1,6.7c0,0.2-0.1,0.4-0.1,0.6c0,1.8,0,3.6,0,5.5c0.1,1.1,0.3,2.1,0.4,3.2
		c1,7.4,3.6,14.1,8,20.2c4.3,6,9.6,10.6,16.1,13.9c4.6,2.3,9.4,3.9,14.5,4.5c1.1,0.1,2.2,0.3,3.3,0.4c1.8,0,3.6,0,5.5,0
		c1.1-0.1,2.2-0.3,3.3-0.4c7.4-1,14.1-3.6,20.2-8c6-4.3,10.6-9.7,14-16.2c1.7-3.3,3-6.7,3.7-10.3c0.4-2.2,0.7-4.5,1-6.7
		c0-0.2,0.1-0.4,0.1-0.6c0-1.8,0-3.6,0-5.5C94.9,46.2,94.7,45,94.6,43.9z M74.9,55.1c-0.1,0.9-0.2,1.8-0.2,2.8
		c-0.2,1.8-0.3,3.6-0.9,5.3c-0.8,2.2-2.4,3.7-4.8,4.1c-1,0.2-2,0.3-3,0.3c-3,0.1-5.9,0.3-8.9,0.4c-4.8,0.1-9.5,0-14.3,0
		c-3.6,0-7.1-0.2-10.7-0.6c-2.8-0.3-5-2.3-5.5-5c-0.4-2-0.5-4.1-0.8-6.2c0-0.3-0.1-0.7-0.1-1c0-3.1,0-6.2,0-9.3
		c0.1-0.9,0.2-1.8,0.2-2.8c0.1-1.7,0.3-3.4,0.8-5c0.8-2.4,2.4-4,5-4.4c1-0.2,2-0.2,3-0.3c2.9-0.1,5.8-0.3,8.7-0.4
		c4.8-0.1,9.7,0,14.5,0c3.5,0,7.1,0.2,10.6,0.5c2.8,0.3,5,2.3,5.5,5c0.3,1.8,0.5,3.7,0.7,5.5c0.1,0.6,0.1,1.2,0.2,1.7
		C74.9,49,74.9,52,74.9,55.1z"/>
</g>
</svg>
