<?xml version="1.0" encoding="utf-8"?>
<!-- Generator: Adobe Illustrator 22.1.0, SVG Export Plug-In . SVG Version: 6.00 Build 0)  -->
<svg version="1.1" id="Capa_1" xmlns="http://www.w3.org/2000/svg" xmlns:xlink="http://www.w3.org/1999/xlink" x="0px" y="0px"
	 viewBox="0 0 100 100" style="enable-background:new 0 0 100 100;" xml:space="preserve">
<style type="text/css">
	.st0{fill:#2D2D2D;}
</style>
<path class="st0" d="M94.6,43.9c-1-7.3-3.6-14-7.9-20c-3.6-5-8-9.1-13.2-12.3C69.3,9,64.8,7.2,60.1,6.2c-2.2-0.5-4.5-0.7-6.7-1
	c-0.2,0-0.4-0.1-0.6-0.1c-1.8,0-3.6,0-5.5,0c-1.1,0.1-2.2,0.3-3.3,0.4c-6.4,0.8-12.4,3-17.9,6.4c-3.7,2.3-6.9,5-9.8,8.3
	C11.3,25.9,7.8,32.5,6.2,40c-0.5,2.2-0.7,4.4-1,6.7c0,0.2-0.1,0.4-0.1,0.6c0,1.8,0,3.6,0,5.5c0.1,1.1,0.3,2.1,0.4,3.2
	c1,7.4,3.6,14.1,8,20.2c4.3,6,9.6,10.6,16.1,13.9c4.6,2.3,9.4,3.9,14.5,4.5c1.1,0.1,2.2,0.3,3.3,0.4c1.8,0,3.6,0,5.5,0
	c1.1-0.1,2.2-0.3,3.3-0.4c7.4-1,14.1-3.6,20.2-8c6-4.3,10.6-9.7,14-16.2c1.7-3.3,3-6.7,3.7-10.3c0.4-2.2,0.7-4.5,1-6.7
	c0-0.2,0.1-0.4,0.1-0.6c0-1.8,0-3.6,0-5.5C94.9,46.2,94.7,45,94.6,43.9z M70.8,56.8c-0.1,0.9-0.1,1.8-0.2,2.7
	c-0.4,3.7-2,6.7-5.1,8.9c-2,1.4-4.4,2-6.8,2.2c-1,0.1-1.9,0.1-2.9,0.2c-4.2,0-8.4,0-12.6,0c-0.9-0.1-1.8-0.1-2.7-0.2
	c-3.7-0.4-6.7-2-8.9-5.1c-1.4-2-2-4.3-2.2-6.8c-0.1-0.9-0.1-1.9-0.2-2.8c0-4.2,0-8.5,0-12.7c0.1-0.9,0.1-1.8,0.2-2.7
	c0.4-3.7,2-6.7,5.1-8.9c2-1.4,4.4-2,6.8-2.2c1-0.1,1.9-0.1,2.9-0.2c4.2,0,8.4,0,12.6,0c0.9,0.1,1.8,0.1,2.7,0.2
	c3.7,0.4,6.7,2,8.9,5.1c1.4,2,2,4.3,2.2,6.8c0.1,0.9,0.1,1.9,0.2,2.8C70.8,48.3,70.8,52.5,70.8,56.8z"/>
<path class="st0" d="M50,42.9c-3.9,0-7.1,3.2-7.1,7c0,3.9,3.2,7.1,7,7.1c3.9,0,7.1-3.2,7.1-7.1C57.1,46.1,53.9,42.9,50,42.9z"/>
<path class="st0" d="M67.2,40.7c-0.3-3.7-2.2-6.3-5.8-7.5c-1.7-0.6-3.4-0.6-5.1-0.7c-3.9,0-7.8,0-11.8,0c-1.3,0-2.6,0.1-3.9,0.2
	c-3.6,0.4-6.2,2.2-7.4,5.8c-0.6,1.7-0.7,3.5-0.7,5.2c0,3.7-0.1,7.5,0,11.2c0,1.5,0.1,2.9,0.2,4.4c0.4,3.6,2.2,6.2,5.8,7.4
	c1.7,0.6,3.4,0.6,5.2,0.7c3.8,0,7.7,0,11.5,0c1.3,0,2.7-0.1,4-0.2c2.5-0.3,4.7-1.2,6.2-3.4c1.2-1.7,1.7-3.6,1.8-5.6
	c0.1-2.7,0.2-5.5,0.3-8.8C67.5,46.9,67.5,43.8,67.2,40.7z M50,60.3c-5.7,0-10.3-4.6-10.3-10.3c0-5.7,4.6-10.3,10.3-10.3
	c5.7,0,10.3,4.6,10.3,10.3C60.3,55.7,55.7,60.3,50,60.3z M60.9,41.6c-1.3,0-2.4-1.1-2.4-2.5c0-1.4,1.1-2.5,2.5-2.5
	c1.3,0,2.4,1.1,2.4,2.5C63.4,40.5,62.2,41.6,60.9,41.6z"/>
</svg>
